<svg xmlns="http://www.w3.org/2000/svg" width="720" height="1280" viewBox="0 0 720 1280" version="1.1">
	<path d="M -0 544.827 L -0 1089.654 2.968 1089.218 C 4.600 1088.978, 6.455 1088.156, 7.090 1087.391 C 7.725 1086.626, 9.035 1086, 10 1086 C 10.965 1086, 12.315 1085.325, 13 1084.500 C 13.685 1083.675, 14.871 1083, 15.636 1083 C 16.401 1083, 17.809 1082.613, 18.764 1082.141 C 19.719 1081.668, 22.750 1080.583, 25.500 1079.730 C 46.051 1073.350, 54.133 1070.931, 58.321 1069.906 C 64.931 1068.289, 77.179 1069.255, 90.500 1072.445 C 96.550 1073.893, 107.350 1075.758, 114.500 1076.589 C 121.650 1077.420, 129.750 1078.708, 132.500 1079.450 C 135.250 1080.193, 141.887 1081.829, 147.250 1083.087 L 157 1085.372 157.170 1089.436 C 157.263 1091.671, 157.231 1095.366, 157.098 1097.646 C 156.964 1099.927, 157.318 1102.079, 157.884 1102.428 C 158.450 1102.778, 158.672 1103.692, 158.377 1104.460 C 158.082 1105.228, 158.363 1109.299, 159.001 1113.508 C 159.845 1119.075, 159.868 1122.432, 159.085 1125.830 C 157.582 1132.350, 156.592 1148.653, 156.555 1167.500 C 156.522 1184.169, 157.007 1190.776, 159.490 1207.500 C 162.482 1227.645, 163.010 1230.576, 164.351 1234.500 C 165.103 1236.700, 166.722 1241.875, 167.948 1246 C 169.173 1250.125, 170.535 1254.400, 170.974 1255.500 C 171.413 1256.600, 172.345 1259.412, 173.046 1261.750 C 173.747 1264.088, 174.698 1266, 175.160 1266 C 175.622 1266, 176 1266.845, 176 1267.878 C 176 1268.910, 176.670 1270.311, 177.489 1270.991 C 178.308 1271.671, 178.763 1272.574, 178.501 1272.998 C 178.239 1273.423, 178.513 1275.172, 179.110 1276.885 L 180.196 1280 209.857 1280 C 238.633 1280, 239.557 1279.939, 240.793 1277.959 C 242.397 1275.391, 241.403 1273.661, 238.725 1274.362 C 236.285 1275, 232.691 1273.309, 233.546 1271.925 C 233.877 1271.390, 233.846 1269.575, 233.476 1267.893 C 232.857 1265.073, 232.705 1264.977, 231.523 1266.667 C 230.817 1267.675, 230.043 1269.400, 229.802 1270.500 C 229.557 1271.616, 229.017 1270.155, 228.580 1267.195 C 228.060 1263.670, 227.160 1261.493, 225.899 1260.705 C 224.854 1260.052, 224 1258.727, 224 1257.759 C 224 1256.549, 223.219 1256, 221.500 1256 C 218.426 1256, 218.159 1253.521, 221.065 1251.965 C 222.589 1251.150, 222.853 1250.528, 222.073 1249.588 C 221.493 1248.889, 221.235 1248.016, 221.500 1247.650 C 221.766 1247.283, 221.447 1247.437, 220.792 1247.992 C 220.136 1248.546, 218.479 1249, 217.109 1249 C 214.768 1249, 214.729 1248.918, 216.471 1247.645 C 217.727 1246.726, 218.094 1245.687, 217.609 1244.423 C 217.003 1242.844, 216.749 1242.783, 215.962 1244.028 C 215.332 1245.024, 215.026 1245.096, 215.015 1244.250 C 215.007 1243.563, 214.100 1241.987, 213 1240.750 C 208.568 1235.764, 208 1234.940, 208 1233.500 C 208 1232.563, 209.033 1231.949, 210.750 1231.864 C 213.453 1231.730, 213.457 1231.720, 211 1231.263 C 208.136 1230.731, 206.743 1229.043, 207.921 1227.534 C 208.364 1226.965, 208.714 1225.710, 208.697 1224.744 C 208.669 1223.129, 208.478 1223.112, 206.305 1224.536 C 204.019 1226.034, 201.446 1225.705, 202.472 1224.046 C 202.749 1223.597, 202.505 1221.877, 201.928 1220.224 C 201.133 1217.944, 200.412 1217.341, 198.940 1217.726 C 196.637 1218.328, 196.383 1216.757, 198.500 1215 C 199.536 1214.140, 200 1214.102, 200 1214.878 C 200 1215.495, 200.450 1216, 201 1216 C 202.534 1216, 202.187 1209.044, 200.571 1207.429 C 199.786 1206.643, 198.773 1205.995, 198.321 1205.990 C 197.870 1205.984, 196.746 1204.184, 195.824 1201.990 C 194.413 1198.631, 194.376 1198, 195.586 1198 C 197.455 1198, 196.361 1189.890, 194.330 1188.689 C 192.538 1187.629, 193.586 1186, 196.059 1186 C 197.127 1186, 198 1185.662, 198 1185.250 C 198.001 1184.446, 210.466 1184.013, 242.750 1183.698 C 253.887 1183.589, 262.999 1183.838, 263 1184.250 C 263 1184.662, 263.863 1185, 264.917 1185 C 265.971 1185, 266.983 1185.337, 267.167 1185.750 C 267.531 1186.570, 275.544 1189.638, 280.823 1190.979 C 282.651 1191.443, 285.062 1192.650, 286.181 1193.661 C 287.300 1194.673, 289.067 1195.359, 290.108 1195.187 C 291.304 1194.989, 292 1195.461, 292 1196.469 C 292 1197.345, 292.788 1198.327, 293.750 1198.650 C 294.712 1198.973, 298.705 1200.759, 302.623 1202.619 C 306.540 1204.478, 310.065 1206, 310.456 1206 C 310.846 1206, 314.800 1207.800, 319.242 1210 C 323.683 1212.200, 327.889 1214, 328.587 1214 C 330.229 1214, 333 1216.774, 333 1218.419 C 333 1219.120, 331.987 1220.159, 330.750 1220.726 L 328.500 1221.758 331.250 1223.040 C 334.033 1224.336, 334.830 1226.369, 333 1227.500 C 332.101 1228.056, 331.567 1226.743, 331.882 1224.750 C 331.947 1224.338, 331.100 1224, 330 1224 C 328.900 1224, 328 1224.633, 328 1225.406 C 328 1226.320, 327.300 1226.630, 326 1226.290 C 324.882 1225.997, 324 1226.259, 324 1226.883 C 324 1227.498, 324.792 1228, 325.759 1228 C 326.727 1228, 328.060 1228.866, 328.721 1229.925 C 329.383 1230.984, 330.953 1232.030, 332.212 1232.250 C 334.368 1232.625, 334.388 1232.698, 332.560 1233.504 C 331.282 1234.068, 330.486 1233.957, 330.227 1233.180 C 329.656 1231.467, 327 1231.731, 327 1233.500 C 327 1234.325, 327.623 1235, 328.383 1235 C 330.194 1235, 331.221 1239.029, 329.836 1240.698 C 329.241 1241.414, 328.112 1242, 327.327 1242 C 325.057 1242, 322.722 1248.843, 323.286 1253.842 C 323.704 1257.557, 323.487 1258.321, 321.891 1258.739 C 319.566 1259.347, 319.462 1260.600, 321.635 1261.816 C 323.351 1262.776, 324.432 1272, 322.829 1272 C 322.373 1272, 322 1272.675, 322 1273.500 C 322 1274.325, 321.498 1275, 320.883 1275 C 320.259 1275, 319.997 1274.118, 320.290 1273 C 320.577 1271.900, 320.363 1271, 319.813 1271 C 319.263 1271, 318.586 1271.869, 318.308 1272.931 C 318.030 1273.993, 317.172 1275.104, 316.401 1275.399 C 315.631 1275.695, 315 1276.851, 315 1277.969 C 315 1279.782, 315.636 1280, 320.917 1280 C 324.714 1280, 327.014 1279.552, 327.338 1278.750 C 327.741 1277.750, 327.858 1277.750, 327.921 1278.750 C 327.983 1279.731, 337.902 1280, 373.965 1280 C 418.728 1280, 419.957 1279.948, 420.988 1278.023 C 422.372 1275.436, 420.248 1271.722, 417.750 1272.363 C 416.284 1272.740, 416 1272.111, 416 1268.490 C 416 1266.112, 415.558 1264.017, 415.017 1263.833 C 414.477 1263.650, 413.862 1262.150, 413.651 1260.500 C 413.236 1257.249, 412.004 1253.744, 409.081 1247.500 C 408.051 1245.300, 406.474 1241.925, 405.576 1240 C 403.465 1235.470, 401.742 1232.673, 400.529 1231.804 C 399.906 1231.358, 399.952 1229.632, 400.658 1226.987 C 401.632 1223.339, 401.542 1222.731, 399.879 1221.692 C 398.846 1221.047, 398 1219.966, 398 1219.291 C 398 1218.610, 397.332 1218.319, 396.500 1218.638 C 395.471 1219.033, 395 1218.578, 395 1217.190 C 395 1216.077, 395.557 1214.981, 396.238 1214.754 C 398.034 1214.155, 395.539 1209, 393.454 1209 C 392.396 1209, 392.051 1208.415, 392.420 1207.250 C 392.725 1206.287, 392.332 1204.263, 391.546 1202.750 C 390.508 1200.750, 390.444 1199.991, 391.309 1199.968 C 392.050 1199.948, 391.918 1199.476, 390.960 1198.718 C 390.113 1198.048, 388.227 1194.955, 386.768 1191.845 C 385.309 1188.734, 383.632 1185.891, 383.041 1185.526 C 382.451 1185.161, 382.247 1184.410, 382.588 1183.857 C 382.930 1183.304, 382.303 1181.873, 381.194 1180.676 C 378.705 1177.989, 376.688 1170.743, 377.433 1167.166 C 378.075 1164.082, 378.165 1160.515, 377.777 1153.502 C 377.584 1150.016, 377.076 1148.503, 376.100 1148.502 C 374.381 1148.500, 368.754 1138.351, 368.752 1135.250 C 368.751 1134.013, 368.349 1133, 367.859 1133 C 367.369 1133, 367.073 1131.623, 367.201 1129.940 C 367.438 1126.831, 367.894 1126.700, 372.250 1128.494 C 373.627 1129.060, 373.997 1128.712, 373.985 1126.857 C 373.977 1125.561, 373.329 1123.375, 372.545 1122 C 370.322 1118.100, 367.734 1112.632, 367.434 1111.200 C 367.285 1110.485, 366.605 1109.229, 365.924 1108.408 C 363.874 1105.939, 360 1097.782, 360 1095.936 C 360 1094.988, 358.650 1092.766, 357 1091 C 355.350 1089.234, 354 1087.270, 354 1086.637 C 354 1085.322, 346.433 1070.015, 343.551 1065.500 C 341.519 1062.317, 338.960 1059.328, 335.196 1055.741 C 331.900 1052.600, 327.726 1045.491, 324.927 1038.250 C 323.598 1034.813, 322.170 1032, 321.755 1032 C 321.340 1032, 321 1031.073, 321 1029.941 C 321 1028.660, 320.571 1028.147, 319.866 1028.583 C 319.080 1029.069, 318.873 1028.319, 319.192 1026.142 C 319.446 1024.414, 319.241 1023, 318.737 1023 C 317.502 1023, 314.075 1018.811, 314.033 1017.250 C 314.015 1016.563, 313.605 1016, 313.121 1016 C 312.638 1016, 311.688 1014.661, 311.010 1013.025 C 310.333 1011.389, 309.041 1009.151, 308.139 1008.051 C 307.238 1006.951, 305.375 1004.477, 304 1002.553 C 302.625 1000.629, 300.938 999.043, 300.250 999.028 C 299.563 999.012, 299 998.100, 299 997 C 299 994.696, 296.077 994.232, 295.850 996.500 C 295.767 997.325, 295.655 998.466, 295.600 999.034 C 295.500 1000.068, 297.728 1003.220, 301.503 1007.386 C 306.230 1012.603, 316.288 1029.039, 315.786 1030.726 C 315.659 1031.152, 316.397 1032.761, 317.426 1034.301 C 320.590 1039.039, 317.954 1039.405, 312.591 1034.974 C 309.930 1032.775, 306.641 1030.697, 305.282 1030.356 C 303.907 1030.011, 303.285 1029.442, 303.881 1029.073 C 305.195 1028.262, 288.051 1011, 285.932 1011 C 285.429 1011, 284.455 1010.100, 283.768 1009 C 283.081 1007.900, 281.615 1007.052, 280.509 1007.116 C 278.983 1007.204, 278.895 1007.337, 280.143 1007.669 C 281.520 1008.035, 281.610 1008.573, 280.698 1010.989 C 279.807 1013.350, 279.147 1013.789, 277.055 1013.415 C 275.650 1013.163, 273.375 1012.793, 272 1012.592 C 270.625 1012.391, 269.619 1011.704, 269.766 1011.067 C 269.912 1010.429, 268.710 1009.446, 267.096 1008.884 C 265.481 1008.321, 263.913 1007.217, 263.612 1006.430 C 263.310 1005.644, 262.641 1005, 262.125 1005 C 260.479 1005, 262.160 1008.980, 264.623 1010.918 C 265.930 1011.946, 267 1013.084, 267 1013.445 C 267 1014.320, 274.292 1020.989, 275.256 1020.995 C 276.237 1021.001, 283.785 1028.713, 287 1032.993 C 290.169 1037.213, 294.342 1042.046, 299.750 1047.760 C 302.087 1050.230, 304 1052.516, 304 1052.840 C 304 1053.164, 304.888 1054.345, 305.973 1055.465 C 310.030 1059.648, 314 1064.801, 314 1065.882 C 314 1066.497, 314.450 1067, 315 1067 C 315.550 1067, 316 1067.454, 316 1068.009 C 316 1068.564, 317.404 1070.477, 319.121 1072.259 C 320.837 1074.042, 323.424 1077.060, 324.871 1078.967 C 326.317 1080.874, 328.175 1083.206, 329 1084.150 C 329.825 1085.094, 331.850 1087.661, 333.500 1089.855 C 335.150 1092.049, 337.512 1094.405, 338.750 1095.091 C 339.987 1095.777, 341 1096.937, 341 1097.669 C 341 1098.401, 341.436 1099, 341.968 1099 C 342.857 1099, 351 1109.282, 351 1110.404 C 351 1110.673, 352.527 1113.504, 354.392 1116.696 C 356.258 1119.888, 358.366 1124.525, 359.077 1127 C 359.788 1129.475, 360.961 1132.388, 361.685 1133.473 C 363.458 1136.132, 363.407 1139.370, 361.603 1138.678 C 359.580 1137.902, 358.829 1143.914, 360.600 1146.715 C 361.370 1147.933, 362 1149.770, 362 1150.798 C 362 1151.826, 362.308 1152.975, 362.685 1153.352 C 363.534 1154.201, 365.964 1161.073, 365.985 1162.683 C 365.993 1163.333, 365.123 1164.144, 364.051 1164.484 C 361.496 1165.295, 362.316 1167.209, 365.897 1168.794 C 367.823 1169.647, 369.023 1171.117, 369.557 1173.281 L 370.351 1176.500 370.739 1173.242 C 371.077 1170.411, 371.316 1170.173, 372.564 1171.421 C 373.550 1172.407, 373.975 1174.996, 373.921 1179.679 C 373.878 1183.430, 373.615 1185.938, 373.338 1185.250 C 372.742 1183.773, 370.370 1183.592, 369.525 1184.959 C 368.497 1186.623, 371.324 1189.912, 374.354 1190.578 C 376.199 1190.983, 376.824 1191.491, 376.059 1191.963 C 375.163 1192.517, 375.292 1193.149, 376.562 1194.419 C 377.838 1195.695, 377.983 1196.417, 377.136 1197.264 C 375.376 1199.024, 375.792 1202.860, 378 1205.230 C 380.686 1208.113, 380.539 1209.600, 377.750 1207.758 C 376.320 1206.814, 375.379 1205.040, 375.168 1202.891 C 374.821 1199.351, 373.456 1197, 371.748 1197 C 371.145 1197, 370.944 1198.808, 371.247 1201.500 C 371.622 1204.828, 371.409 1206, 370.427 1206 C 369.697 1206, 368.699 1205.285, 368.210 1204.410 C 367.721 1203.536, 366.995 1202.934, 366.597 1203.072 C 366.199 1203.210, 364.290 1202.702, 362.356 1201.943 C 358.921 1200.596, 358.854 1200.463, 359.481 1196.280 C 360.057 1192.436, 359.886 1191.906, 357.811 1191.105 C 356.540 1190.614, 354.409 1189.039, 353.076 1187.606 C 351.742 1186.173, 350.348 1185, 349.977 1185 C 349.607 1185, 348.596 1186.800, 347.732 1189 C 346.868 1191.200, 346.575 1193, 347.080 1193 C 347.586 1193, 348 1193.909, 348 1195.019 C 348 1196.717, 347.567 1196.930, 345.280 1196.355 C 340.349 1195.118, 335.995 1191.950, 336.068 1189.651 C 336.135 1187.505, 336.138 1187.505, 337.220 1189.750 C 337.893 1191.144, 339.206 1192, 340.672 1192 C 342.746 1192, 342.957 1191.660, 342.381 1189.250 C 341.429 1185.265, 340.688 1184.627, 335.328 1183.175 C 332.673 1182.456, 329.719 1181.447, 328.764 1180.934 C 326.404 1179.665, 326.223 1179.715, 325.018 1181.966 C 324.124 1183.636, 324.419 1184.165, 326.983 1185.491 C 328.642 1186.349, 330.007 1186.702, 330.015 1186.276 C 330.024 1185.849, 330.444 1186.154, 330.949 1186.952 C 333.257 1190.599, 328.911 1191.063, 325.813 1187.500 C 323.324 1184.637, 321.345 1184.369, 318.324 1186.486 C 316.536 1187.738, 316.119 1187.753, 315.670 1186.582 C 315.377 1185.818, 315.395 1184.206, 315.710 1183 C 316.184 1181.187, 316.787 1180.907, 319.182 1181.386 C 323.313 1182.213, 326 1180.210, 326 1176.305 C 326 1172.833, 325.466 1172.596, 315.445 1171.614 C 311.179 1171.196, 305 1173.170, 305 1174.952 C 305 1175.528, 303.814 1176, 302.364 1176 L 299.729 1176 303.114 1179.001 C 305.811 1181.391, 306.213 1182.187, 305.089 1182.909 C 304.314 1183.408, 302.964 1183.468, 302.089 1183.042 C 298.419 1181.255, 293.343 1179.790, 291.155 1179.888 C 289.600 1179.958, 288.635 1179.321, 288.289 1177.997 C 287.951 1176.706, 286.924 1176, 285.383 1176 C 283.931 1176, 283 1175.414, 283 1174.500 C 283 1172.378, 280.009 1172.624, 279.960 1174.750 C 279.931 1175.998, 279.492 1175.711, 278.428 1173.750 C 277.607 1172.237, 276.438 1171, 275.828 1171 C 275.219 1171, 274.123 1170.213, 273.392 1169.250 C 272.581 1168.181, 272.051 1167.987, 272.032 1168.750 C 272.014 1169.438, 271.100 1170, 270 1170 C 268.444 1170, 268 1169.333, 268 1167 C 268 1163.978, 266.600 1162.931, 265.659 1165.250 C 265.331 1166.060, 264.861 1166.148, 264.326 1165.500 C 263.071 1163.981, 259.215 1162, 257.514 1162 C 255.796 1162, 255.486 1163.564, 257.016 1164.510 C 257.575 1164.856, 257.769 1165.564, 257.447 1166.085 C 257.125 1166.606, 256.456 1166.782, 255.960 1166.475 C 255.464 1166.169, 254.779 1167.032, 254.438 1168.393 C 254.026 1170.033, 253.322 1170.677, 252.351 1170.304 C 251.545 1169.995, 251.122 1169.125, 251.411 1168.371 C 252.047 1166.713, 251.121 1164, 249.918 1164 C 249.441 1164, 249.335 1165.426, 249.684 1167.168 C 250.229 1169.895, 250.075 1170.243, 248.577 1169.668 C 247.620 1169.301, 246.648 1169, 246.418 1169 C 246.188 1169, 246 1168.406, 246 1167.680 C 246 1165.903, 241.159 1161.784, 239.949 1162.532 C 238.382 1163.500, 237.663 1160.111, 239.074 1158.411 C 240.144 1157.121, 240.121 1156.693, 238.944 1155.965 C 238.159 1155.480, 236.505 1155.337, 235.268 1155.648 C 233.756 1156.027, 232.819 1155.692, 232.409 1154.624 C 231.923 1153.357, 231.386 1153.258, 229.748 1154.135 C 228.025 1155.057, 227.796 1154.974, 228.317 1153.616 C 228.704 1152.607, 228.417 1152, 227.552 1152 C 226.790 1152, 225.938 1151.437, 225.659 1150.750 C 225.278 1149.809, 224.890 1149.871, 224.091 1151 C 223.372 1152.017, 223.026 1152.097, 223.015 1151.250 C 223.007 1150.563, 222.377 1150, 221.617 1150 C 220.856 1150, 219.998 1149.100, 219.710 1148 C 219.382 1146.744, 218.346 1146, 216.927 1146 C 215.684 1146, 214.930 1145.736, 215.252 1145.414 C 215.765 1144.902, 213.847 1142.196, 210.435 1138.617 C 209.850 1138.003, 208.816 1136.600, 208.137 1135.500 C 206.956 1133.583, 206.930 1133.593, 207.520 1135.750 C 208.356 1138.811, 207.182 1138.608, 205.995 1135.488 C 205.470 1134.106, 203.906 1132.459, 202.520 1131.827 C 201.134 1131.196, 200 1130.301, 200 1129.839 C 200 1129.378, 199.312 1129, 198.471 1129 C 197.630 1129, 194.078 1126.094, 190.579 1122.543 C 184.603 1116.478, 184.063 1116.158, 181.684 1117.281 C 179.999 1118.076, 179.545 1118.726, 180.326 1119.223 C 181.142 1119.741, 181.042 1119.969, 180 1119.969 C 179.175 1119.969, 177.825 1119.526, 177 1118.985 C 175.667 1118.109, 175.667 1117.891, 177 1117.015 C 178.003 1116.357, 178.086 1116.026, 177.250 1116.015 C 176.563 1116.007, 176 1115.628, 176 1115.173 C 176 1114.718, 177.463 1114.493, 179.250 1114.672 C 181.037 1114.850, 181.938 1114.735, 181.250 1114.415 C 179.760 1113.722, 179.576 1109.380, 181 1108.500 C 182.600 1107.511, 182.170 1105.700, 179.632 1102.750 C 177.151 1099.864, 174.448 1099.157, 173.762 1101.214 C 173.539 1101.882, 172.717 1100.982, 171.935 1099.214 C 171.152 1097.446, 170.028 1096, 169.436 1096 C 167.931 1096, 164 1091.295, 164 1089.492 C 164 1088.672, 163.438 1088, 162.750 1087.999 C 162.063 1087.999, 159.777 1084.286, 157.670 1079.749 C 155.564 1075.212, 152.527 1068.679, 150.920 1065.231 C 149.314 1061.783, 147.999 1057.958, 147.998 1056.731 C 147.997 1054.906, 147.679 1055.137, 146.248 1058 C 144.096 1062.308, 140.317 1063.339, 139.599 1059.815 C 138.130 1052.600, 138.117 1041.963, 139.574 1038.478 C 141.471 1033.938, 141.091 1031.504, 138.487 1031.502 C 137.053 1031.500, 136.410 1030.718, 136.178 1028.690 C 136.001 1027.144, 136.285 1025.344, 136.810 1024.690 C 137.336 1024.035, 137.788 1019.563, 137.815 1014.750 C 137.926 994.877, 137.727 996.250, 140.500 996.250 C 141.875 996.250, 143 996.670, 143 997.184 C 143 997.698, 143.445 997.843, 143.989 997.507 C 144.555 997.157, 144.723 997.558, 144.382 998.448 C 143.556 1000.599, 145.609 1000.411, 146.542 998.250 C 147.579 995.850, 147.954 971.741, 146.974 970.500 C 146.540 969.950, 145.958 966.575, 145.680 963 C 145.403 959.425, 144.865 955.067, 144.484 953.316 C 143.868 950.481, 144.010 950.190, 145.777 950.652 C 147.427 951.083, 147.829 950.586, 148.166 947.700 C 148.389 945.791, 148.245 943.010, 147.847 941.520 C 147.448 940.029, 147.591 937.615, 148.164 936.155 L 149.206 933.500 150.141 935.939 C 150.655 937.281, 150.798 939.644, 150.458 941.189 C 150.056 943.020, 150.249 944, 151.010 944 C 153.160 944, 155.896 939.547, 156.542 935 C 157.881 925.574, 158.132 924.491, 159.053 924.167 C 159.574 923.983, 160 922.997, 160 921.976 C 160 920.954, 160.408 919.866, 160.906 919.558 C 161.405 919.250, 162.116 916.636, 162.486 913.749 C 162.856 910.862, 163.559 907.150, 164.047 905.500 C 164.535 903.850, 165.652 899.800, 166.529 896.500 C 167.405 893.200, 169.051 887.669, 170.186 884.208 C 171.321 880.747, 172.012 877.679, 171.722 877.389 C 171.433 877.099, 170.031 878.806, 168.607 881.181 C 164.787 887.556, 165.443 883.479, 169.446 875.967 C 171.341 872.410, 173.567 868.042, 174.391 866.260 C 175.338 864.212, 176.403 863.217, 177.285 863.556 C 178.052 863.850, 179.257 863.396, 179.962 862.546 C 180.720 861.633, 180.820 861, 180.206 861 C 179.634 861, 178.940 861.562, 178.662 862.250 C 178.282 863.192, 178.138 863.201, 178.079 862.285 C 178.036 861.617, 178.900 860.589, 180 860 C 181.100 859.411, 182 858.244, 182 857.406 C 182 856.568, 182.375 856.114, 182.833 856.397 C 183.292 856.680, 183.678 856.369, 183.691 855.706 C 183.705 855.043, 186.030 850.754, 188.858 846.177 C 191.686 841.599, 194 837.603, 194 837.298 C 194 836.992, 195.716 834.213, 197.814 831.121 C 199.912 828.030, 203.774 821.482, 206.397 816.570 C 210.910 808.119, 213.537 803.962, 227.925 782.500 C 240.623 763.561, 240 764.364, 240 766.930 C 240 769.050, 234.799 778.773, 233.008 780 C 229.291 782.548, 227.656 795.297, 229.953 803.825 C 231.368 809.081, 232.391 809.273, 231.520 804.119 C 230.681 799.152, 231.709 793.689, 233.932 791.303 C 234.891 790.275, 235.997 788.150, 236.390 786.581 C 236.784 785.012, 239.332 781.491, 242.053 778.756 C 244.774 776.020, 247.068 772.819, 247.152 771.641 C 247.526 766.387, 247.400 765.633, 246.081 765.194 C 245.122 764.874, 244.879 765.242, 245.309 766.364 C 245.655 767.264, 245.501 768, 244.969 768 C 244.436 768, 244 767.490, 244 766.866 C 244 764.563, 246.387 757.451, 247.673 755.921 C 248.403 755.053, 249 753.783, 249 753.100 C 249 751.092, 258.382 737.069, 259.750 737.033 C 260.470 737.014, 261.066 738.379, 261.156 740.250 C 261.242 742.038, 261.370 744.715, 261.441 746.201 C 261.633 750.261, 262.983 750.837, 263.118 746.917 C 263.466 736.834, 263.916 730.470, 264.426 728.440 C 264.740 727.189, 264.559 726.016, 264.024 725.833 C 262.565 725.334, 264.016 721, 265.641 721 C 266.416 721, 268.276 718.916, 269.775 716.368 C 273.024 710.846, 276.860 707, 279.117 707 C 280.018 707, 281.315 706.325, 282 705.500 C 282.897 704.419, 282.922 704, 282.091 704 C 279.678 704, 279.931 700.957, 282.640 697.405 L 285.457 693.712 282.406 695.290 C 280.727 696.158, 278.770 697.573, 278.055 698.434 C 276.793 699.955, 274 700.616, 274 699.394 C 274 699.061, 274.712 696.041, 275.582 692.682 C 277.413 685.616, 281.118 678.839, 284.681 676.036 C 286.049 674.960, 286.889 673.630, 286.549 673.080 C 285.808 671.880, 293.505 660.326, 296.143 658.679 C 297.164 658.041, 298 656.480, 298 655.210 C 298 653.940, 298.746 651.461, 299.659 649.700 C 300.571 647.940, 301.721 644.925, 302.215 643 C 302.709 641.075, 303.537 637.829, 304.053 635.787 C 304.864 632.585, 307.618 626.172, 309.830 622.337 C 311.425 619.571, 320.381 606.455, 320.985 606 C 323.251 604.294, 325.933 596.360, 326.877 588.572 C 327.471 583.662, 328.367 579.387, 328.867 579.072 C 329.366 578.757, 330.461 576.852, 331.300 574.838 C 332.139 572.823, 333.764 570.236, 334.912 569.088 C 337.764 566.236, 337.678 563.798, 334.750 564.505 C 332.055 565.156, 326 559.972, 326 557.014 C 326 553.466, 328.110 549.499, 331.859 546 L 335.610 542.500 335.298 532.750 C 335.127 527.388, 335.355 523, 335.805 523 C 336.255 523, 337.495 523.791, 338.561 524.757 C 341.872 527.757, 356.321 533.962, 363.580 535.499 C 388.022 540.677, 412.587 532.205, 430.967 512.258 C 434.835 508.060, 438 504.072, 438 503.396 C 438 502.720, 438.395 502.017, 438.878 501.833 C 440.403 501.255, 447.622 485.884, 450.997 476.033 C 453.883 467.607, 454.153 465.901, 453.454 460.533 C 453.022 457.215, 452.630 452.250, 452.584 449.500 C 452.504 444.763, 452.684 444.405, 456 442.696 C 458.885 441.209, 461.433 440.948, 470.500 441.206 C 479.826 441.472, 482.261 441.899, 486.500 444.010 C 493.554 447.523, 494.050 449.604, 490.553 461.006 L 487.757 470.119 489.419 481.674 C 492.441 502.680, 498.517 517.297, 509.325 529.555 C 527.035 549.643, 554.953 558.913, 579.906 552.992 C 588.872 550.865, 605 543.709, 605 541.858 C 605 541.386, 605.637 541, 606.416 541 C 607.195 541, 609.648 539.312, 611.868 537.250 C 614.088 535.188, 616.713 532.760, 617.702 531.856 C 626.245 524.047, 633.295 513.072, 640.499 496.368 C 644.880 486.209, 647.055 482.477, 650.904 478.512 C 653.581 475.756, 656.337 472.396, 657.030 471.046 C 658.597 467.992, 660.972 459.207, 660.988 456.409 C 661.010 452.614, 653.135 445.933, 643.123 441.251 C 637.965 438.839, 627.840 433.167, 620.623 428.647 C 602.430 417.253, 597.068 414.892, 581.627 411.483 C 564.489 407.699, 541.641 412.039, 522.856 422.646 C 509.982 429.915, 508.587 430.063, 496.416 425.449 C 487.696 422.143, 485.173 421.635, 475.500 421.240 C 467.408 420.910, 462.876 421.215, 458.356 422.395 C 450.720 424.389, 439.818 424.481, 436.200 422.582 C 434.715 421.803, 431.700 419.289, 429.500 416.996 C 415.091 401.981, 387.343 393.021, 367.277 396.904 C 364.955 397.354, 362.848 397.515, 362.596 397.263 C 361.541 396.208, 363.374 393.995, 365.357 393.930 C 367.427 393.862, 367.432 393.833, 365.504 393.080 C 363.673 392.366, 363.858 391.976, 367.754 388.343 C 371.716 384.648, 373.133 382, 371.147 382 C 370.078 382, 370.924 372.140, 372.205 369.672 C 372.804 368.518, 373.758 368.077, 374.796 368.475 C 375.700 368.822, 376.127 368.794, 375.746 368.413 C 375.365 368.031, 375.780 366.320, 376.669 364.610 C 377.558 362.899, 378.750 360.600, 379.317 359.500 C 379.884 358.400, 380.251 355.813, 380.133 353.750 C 379.954 350.606, 380.239 350, 381.900 350 C 382.990 350, 384.243 349.438, 384.684 348.750 C 385.705 347.159, 385.836 342.983, 384.846 343.595 C 384.436 343.849, 383.583 343.089, 382.950 341.907 C 382.273 340.642, 382.221 340.019, 382.824 340.391 C 383.387 340.739, 384.820 339.657, 386.009 337.988 C 387.198 336.318, 388.695 335.033, 389.335 335.133 C 389.976 335.234, 391.175 335.043, 392 334.711 C 392.825 334.378, 398.225 332.980, 404 331.604 C 418.180 328.224, 443.138 326.583, 467 327.461 C 513.205 329.162, 545.397 333.437, 576 341.934 C 592.956 346.643, 614.140 354.088, 616.450 356.152 C 616.973 356.618, 618.029 357, 618.799 357 C 621.915 357, 644.745 367.908, 647.673 370.795 C 650.388 373.474, 650.329 373.183, 648.827 376.480 C 647.930 378.449, 647.930 379.330, 648.827 380.227 C 649.472 380.872, 650 382.885, 650 384.700 C 650 387.514, 650.352 388, 652.393 388 C 655.601 388, 656.296 390.305, 654.213 394.034 C 652.571 396.972, 652.581 397.160, 654.441 398.550 C 656.282 399.925, 656.287 400, 654.536 400 C 652.811 400, 652.798 400.120, 654.345 401.829 C 656.356 404.051, 656.468 406.801, 654.634 408.921 C 652.609 411.262, 651.671 415.998, 653.231 416.008 C 654.734 416.017, 658.984 423.112, 659.036 425.698 C 659.080 427.904, 662.700 432.330, 665.750 433.907 C 667.160 434.636, 668 435.990, 668 437.535 C 668 438.891, 668.395 440, 668.879 440 C 669.362 440, 670.319 441.356, 671.005 443.013 C 671.710 444.715, 673.249 446.275, 674.544 446.600 C 676.622 447.122, 676.736 447.458, 675.774 450.218 C 674.898 452.732, 674.999 453.420, 676.357 454.180 C 677.497 454.818, 678 456.461, 678 459.550 C 678 461.997, 678.466 464, 679.035 464 C 679.736 464, 679.748 464.603, 679.070 465.869 C 678.520 466.896, 678.301 467.967, 678.582 468.249 C 678.864 468.531, 679.304 471.522, 679.559 474.897 C 679.911 479.531, 679.618 481.654, 678.362 483.571 C 677.447 484.967, 676.739 487.534, 676.789 489.275 C 676.838 491.016, 676.516 492.904, 676.072 493.471 C 675.628 494.037, 675.231 497.637, 675.190 501.472 C 675.132 506.746, 674.710 508.739, 673.457 509.655 C 672.545 510.322, 672.109 511.367, 672.486 511.977 C 672.863 512.588, 672.743 513.630, 672.219 514.294 C 671.695 514.957, 671.019 518.365, 670.717 521.866 C 670.416 525.367, 669.681 528.719, 669.084 529.316 C 668.305 530.095, 668 530.062, 668 529.200 C 668 528.540, 667.523 528, 666.941 528 C 666.359 528, 666.164 528.456, 666.508 529.013 C 666.853 529.570, 666.428 532.456, 665.565 535.425 C 664.702 538.395, 664.264 541.651, 664.592 542.662 C 665.088 544.189, 665.006 544.246, 664.110 543 C 663.181 541.710, 663.028 541.752, 663.015 543.301 C 663.007 544.292, 661.362 546.602, 659.361 548.436 C 654.003 553.344, 651.570 562, 655.548 562 C 656.282 562, 657.160 561.550, 657.500 561 C 658.503 559.377, 659.727 559.850, 660.312 562.087 C 660.930 564.447, 663.817 564.394, 665.072 562 C 667.161 558.015, 670 551.249, 670 550.254 C 670 549.225, 670.830 547.762, 676.523 538.752 C 677.635 536.992, 679.885 534.865, 681.523 534.026 C 683.160 533.187, 684.642 532.188, 684.815 531.806 C 684.988 531.425, 685.775 531.360, 686.565 531.663 C 687.354 531.966, 688 531.730, 688 531.138 C 688 530.547, 688.675 530.322, 689.500 530.638 C 690.480 531.014, 691 530.610, 691 529.472 C 691 528.113, 691.463 528.318, 693.107 530.409 C 694.839 532.611, 695.095 533.880, 694.546 537.544 C 694.158 540.132, 694.271 542, 694.817 542 C 696.198 542, 698.494 535.941, 697.410 535.158 C 696.473 534.481, 696.199 533.364, 695.288 526.500 C 694.814 522.929, 693.661 521.061, 691.906 521.015 C 691.579 521.007, 690.004 522.124, 688.406 523.499 C 682.806 528.315, 682.096 526.771, 685.649 517.500 C 689.392 507.733, 691.503 504.638, 696.373 501.777 C 701.289 498.889, 702.664 499.001, 705.235 502.500 C 706.325 503.984, 706.154 508, 705 508 C 703.037 508, 704.052 509.599, 707.193 511.455 C 709.405 512.762, 710.506 512.982, 710.776 512.171 C 711.359 510.424, 713 510.757, 713 512.622 C 713 513.910, 713.293 514.002, 714.419 513.067 C 715.538 512.139, 716.043 512.254, 716.801 513.609 C 717.515 514.884, 716.900 517.133, 714.429 522.289 C 712.594 526.117, 710.285 530.325, 709.298 531.640 C 706.480 535.392, 703.183 541.094, 700.995 546 C 699.891 548.475, 698.304 551.713, 697.469 553.195 C 694.696 558.121, 690.831 569.420, 689.852 575.466 C 689.321 578.747, 688.447 581.962, 687.908 582.610 C 687.370 583.259, 687.035 584.174, 687.165 584.645 C 687.294 585.115, 687.062 588.717, 686.649 592.649 C 685.985 598.974, 685.496 600.212, 682.403 603.397 C 676.978 608.983, 673.517 610.382, 665 610.434 C 657.406 610.480, 653.187 609.176, 646.846 604.822 C 643.470 602.505, 642.323 602.528, 641.030 604.943 C 639.933 606.993, 640.651 607.605, 648.629 611.427 C 650.350 612.251, 652.023 613.617, 652.347 614.463 C 652.672 615.308, 653.626 616, 654.469 616 C 655.311 616, 656 616.395, 656 616.879 C 656 617.362, 657.462 618.350, 659.250 619.074 C 663.471 620.784, 670.092 626.042, 669.411 627.144 C 669.120 627.615, 669.533 628, 670.328 628 C 671.123 628, 674.646 630.813, 678.157 634.250 C 681.667 637.688, 687.118 642.909, 690.270 645.854 C 693.421 648.799, 696 651.686, 696 652.271 C 696 652.855, 696.261 653.072, 696.580 652.753 C 696.900 652.434, 698.812 654.046, 700.830 656.336 C 702.849 658.626, 704.725 660.725, 705 661 C 705.275 661.275, 706.102 662.570, 706.838 663.877 C 708.353 666.570, 707.764 680.835, 705.490 696.500 C 704.589 702.710, 704.503 705.888, 705.214 706.750 C 705.933 707.621, 705.860 708.463, 704.975 709.530 C 704.012 710.691, 703.973 711.646, 704.815 713.494 C 705.512 715.023, 705.567 716.150, 704.962 716.523 C 704.433 716.850, 704 719.326, 704 722.024 C 704 724.722, 703.373 728.858, 702.606 731.215 C 701.840 733.572, 700.973 738.414, 700.681 741.975 C 700.388 745.537, 699.647 748.618, 699.033 748.822 C 698.337 749.054, 698.259 749.629, 698.827 750.347 C 699.401 751.075, 698.698 754.631, 696.918 760 C 695.368 764.675, 694.091 769.400, 694.082 770.500 C 694.065 772.374, 694.147 772.390, 695.392 770.750 C 697.132 768.459, 698.233 768.541, 699.820 771.084 C 700.536 772.230, 701.697 772.946, 702.401 772.676 C 703.105 772.406, 704.303 772.569, 705.063 773.039 C 707.226 774.376, 703.665 775.353, 698.938 774.718 C 693.952 774.050, 693.520 774.774, 690.988 788.063 C 689.941 793.558, 688.833 798.462, 688.526 798.958 C 688.219 799.455, 688.361 800.105, 688.843 800.403 C 689.325 800.701, 692.224 797.469, 695.285 793.222 C 698.346 788.975, 702.122 784.300, 703.676 782.834 C 707.101 779.601, 715.600 775, 718.149 775 C 721.288 775, 720.197 776.623, 716.250 777.826 C 710.330 779.630, 701.704 788.047, 697.010 796.600 C 693.626 802.766, 692.552 803.993, 690.980 803.494 C 689.538 803.036, 688.949 803.455, 688.588 805.193 C 687.566 810.112, 686.867 814.790, 686.061 822.103 C 684.973 831.981, 684.061 836, 682.909 836 C 682.381 836, 682.245 834.154, 682.595 831.750 C 683.209 827.539, 683.199 827.521, 681.492 829.834 C 680.254 831.511, 679.463 831.863, 678.684 831.084 C 678.088 830.488, 676.675 830, 675.543 830 C 674.034 830, 673.169 828.981, 672.292 826.172 C 671.635 824.066, 671.323 821.479, 671.600 820.422 C 672.043 818.727, 671.535 818.495, 667.293 818.460 L 662.485 818.420 665.492 824.426 C 667.147 827.730, 669.095 831.123, 669.823 831.966 C 674.591 837.494, 676.472 840.390, 679.914 847.500 C 684.597 857.172, 685.355 859.365, 687.352 869 C 689.121 877.531, 690.130 896.802, 688.849 897.593 C 688.382 897.882, 688 899.441, 688 901.059 C 688 902.677, 687.550 904, 687 904 C 686.450 904, 686 905.323, 686 906.941 C 686 908.559, 685.550 910.160, 685 910.500 C 684.450 910.840, 684 911.940, 684 912.945 C 684 913.949, 683.432 915.835, 682.739 917.136 C 680.365 921.584, 669.626 937.499, 668.545 938.169 C 664.434 940.719, 655 951.790, 655 954.065 C 655 955.003, 653.875 956.507, 652.500 957.408 C 651.125 958.309, 650 959.473, 650 959.994 C 650 960.515, 647.778 963.106, 645.063 965.751 L 640.126 970.559 640.570 977.280 C 640.854 981.590, 640.636 984, 639.963 984 C 639.385 984, 639.014 984.563, 639.139 985.250 C 639.508 987.288, 636.945 997.916, 635.933 998.542 C 635.420 998.859, 635 1000.184, 635 1001.488 C 635 1002.791, 634.438 1004.452, 633.750 1005.179 C 633.063 1005.905, 631.861 1007.737, 631.081 1009.250 C 629.496 1012.322, 626.615 1012.820, 623.412 1010.576 C 621.461 1009.210, 621.327 1009.402, 620.103 1015.326 C 619.401 1018.722, 618.372 1022.710, 617.817 1024.190 C 617.262 1025.669, 617.052 1027.275, 617.351 1027.760 C 619.518 1031.265, 620.439 1049.845, 618.552 1051.976 C 617.689 1052.949, 617.290 1055.488, 617.447 1059 C 617.791 1066.683, 617.886 1067.188, 618.885 1066.571 C 619.371 1066.270, 620.072 1069.056, 620.442 1072.762 C 621.152 1079.885, 623.228 1087.841, 625.460 1092 C 626.198 1093.375, 627.338 1096.525, 627.994 1099 C 628.649 1101.475, 629.744 1104.175, 630.425 1105 C 632.235 1107.191, 636 1116.546, 636 1118.852 C 636 1119.942, 636.440 1120.983, 636.977 1121.167 C 637.514 1121.350, 639.124 1126.225, 640.555 1132 C 643.017 1141.934, 646.854 1153.330, 649.073 1157.299 C 649.626 1158.289, 650.250 1160.764, 650.460 1162.799 C 650.670 1164.835, 651.112 1167.189, 651.443 1168.030 C 652.163 1169.860, 656.876 1199.289, 657.645 1206.752 C 657.942 1209.640, 658.594 1211.751, 659.093 1211.443 C 659.592 1211.134, 660 1211.646, 660 1212.581 C 660 1213.515, 660.788 1214.893, 661.750 1215.642 C 663.201 1216.772, 663.223 1216.909, 661.878 1216.444 C 660.719 1216.044, 660.116 1216.615, 659.766 1218.442 C 659.497 1219.849, 659.665 1221, 660.139 1221 C 660.612 1221, 661.032 1222.463, 661.070 1224.250 C 661.129 1226.974, 661.280 1227.176, 662 1225.500 C 662.743 1223.771, 662.875 1223.906, 662.974 1226.500 C 663.086 1229.458, 663.110 1229.443, 664.642 1225.500 C 665.497 1223.300, 666.248 1220.734, 666.312 1219.798 C 666.376 1218.861, 666.595 1218.261, 666.798 1218.464 C 667.001 1218.667, 668.046 1217.954, 669.120 1216.880 C 671.458 1214.542, 673.465 1215.263, 672.038 1217.929 C 671.506 1218.924, 671.392 1220.093, 671.785 1220.529 C 672.178 1220.964, 671.957 1221.009, 671.293 1220.628 C 669.751 1219.743, 667.274 1224.434, 666.401 1229.895 C 665.876 1233.174, 666.047 1234, 667.250 1234 C 668.078 1234, 669.324 1234.686, 670.020 1235.524 C 671.818 1237.690, 672.394 1236.606, 670.917 1233.836 C 669.784 1231.710, 669.822 1231.623, 671.336 1232.872 C 672.572 1233.892, 673 1233.929, 673 1233.017 C 673 1232.188, 674.299 1231.914, 677 1232.171 L 681 1232.553 681 1226.089 L 681 1219.626 678.010 1222.490 C 673.959 1226.371, 672.837 1224.799, 676.757 1220.735 C 678.473 1218.956, 680.344 1216.263, 680.914 1214.750 C 683.028 1209.143, 683.862 1211.990, 683.288 1222.856 L 682.716 1233.712 685.281 1234.356 C 686.692 1234.710, 689.173 1236.116, 690.795 1237.481 L 693.744 1239.962 696.372 1234.106 C 701.536 1222.600, 698.282 1213.628, 691.318 1220.171 C 688.615 1222.711, 687.344 1222.095, 688.980 1219.038 C 691.667 1214.017, 698.732 1214.525, 700.958 1219.899 C 702.503 1223.629, 701.762 1228.220, 698.381 1235.864 C 695.506 1242.367, 695.765 1244.305, 700.243 1249.767 C 702.034 1251.952, 704.175 1254.751, 705 1255.988 C 705.825 1257.224, 707.649 1259.871, 709.053 1261.868 C 710.457 1263.866, 713.078 1268.087, 714.876 1271.250 C 717.863 1276.501, 717.977 1277, 716.196 1277 C 715.123 1277, 713.685 1277.675, 713 1278.500 C 711.929 1279.790, 712.308 1280, 715.712 1280 L 719.669 1280 720.334 1136.750 C 720.700 1057.962, 720.999 769.962, 721 496.750 L 721 0 360.500 0 L 0 0 -0 544.827 M 0.496 545.500 C 0.496 845.250, 0.610 968.024, 0.750 818.332 C 0.889 668.640, 0.889 423.390, 0.750 273.332 C 0.611 123.274, 0.496 245.750, 0.496 545.500 M 490.500 149.594 C 476.750 150.888, 461.900 152.839, 457.500 153.930 C 446.299 156.706, 411.665 173.161, 398.817 181.811 C 386.325 190.222, 374.021 203.699, 363.497 220.500 C 357.553 229.989, 348.515 248.848, 349.458 249.792 C 349.632 249.965, 353.537 249.429, 358.137 248.600 C 362.737 247.772, 369.480 246.802, 373.123 246.444 L 379.746 245.794 380.308 241.147 C 382.102 226.315, 391.330 210.605, 408.001 194 C 419.787 182.261, 426.037 178.128, 438.494 173.834 C 445.469 171.430, 448.866 170.862, 457.255 170.699 C 466.687 170.516, 467.957 170.724, 473.251 173.324 C 481.370 177.311, 484.354 182.495, 484.203 192.354 C 484.129 197.203, 483.372 201.323, 481.846 205.171 C 479.652 210.704, 479.434 210.906, 472.866 213.483 C 461.130 218.087, 448.366 229.576, 442.663 240.666 L 441.035 243.833 448.518 244.416 C 471.849 246.236, 470.472 246.242, 472.199 244.315 C 473.094 243.317, 474.487 239.950, 475.296 236.833 L 476.767 231.166 473.383 227.887 C 468.833 223.476, 468.785 219.708, 473.250 217.294 C 477.357 215.074, 491.903 214.826, 496.803 216.893 C 499.500 218.031, 500.050 218.764, 499.803 220.893 C 499.555 223.026, 498.138 224.191, 492 227.304 C 484.188 231.267, 483.305 232.409, 481.709 240.617 C 480.889 244.834, 483.810 248, 488.520 248 C 492.269 248, 532.770 254.740, 534.152 255.594 C 536.647 257.136, 534.381 254.939, 530.143 251.707 C 525.457 248.134, 525.262 247.781, 524.634 241.751 C 523.532 231.160, 517.705 222.021, 507.639 215.096 L 503.379 212.165 504.056 205.629 C 504.855 197.903, 508.368 191.736, 516.073 184.528 C 531.618 169.988, 559.198 168.480, 583.668 180.833 C 602.869 190.525, 618.121 213.772, 618.222 233.500 C 618.297 247.965, 612.681 258.554, 602.208 263.697 C 596.979 266.265, 595.558 266.499, 585.289 266.489 C 579.123 266.483, 574.398 266.747, 574.789 267.076 C 575.180 267.405, 579.775 269.174, 585 271.006 C 617.182 282.292, 662.349 308.415, 678.656 325.173 C 686.829 333.572, 693.200 343.817, 695.953 352.985 C 698.280 360.735, 701.948 385.880, 701.981 394.307 C 701.999 398.869, 702.396 399.564, 709.750 407.924 C 717.405 416.626, 717.512 416.702, 718.461 414.117 C 719.034 412.558, 719.552 380.779, 719.743 335.500 L 720.063 259.500 715.163 247.394 C 707.048 227.342, 702.702 222.755, 665 194.451 L 646.500 180.562 617 167.705 L 587.500 154.848 557.030 150.924 C 540.271 148.766, 524.071 147.054, 521.030 147.121 C 517.988 147.187, 504.250 148.300, 490.500 149.594 M 438.500 191.808 C 428.087 195.437, 415.770 205.890, 411.922 214.363 C 408.340 222.252, 410.085 231.106, 415.826 234.172 C 417.195 234.902, 421.281 235.491, 424.907 235.479 C 430.560 235.461, 432.640 234.891, 439.500 231.482 C 453.845 224.353, 463 212.973, 463 202.272 C 463 198.189, 460.801 193.675, 457.783 191.561 C 454.779 189.456, 444.883 189.583, 438.500 191.808 M 542.500 192.885 C 535.794 194.630, 527.993 200.179, 525.519 204.963 C 524.744 206.461, 523.806 209.979, 523.435 212.779 C 522.518 219.693, 525.404 225.590, 532.559 231.419 C 539.914 237.410, 546.360 240.326, 553.367 240.833 C 574.724 242.378, 588.077 226.926, 579.689 210.373 C 576.838 204.747, 569.344 198.362, 561.795 195.126 C 556.440 192.831, 546.944 191.728, 542.500 192.885 M 441.666 199.697 C 436.386 201.497, 427.769 208.613, 425.458 213.080 C 423.092 217.656, 423.576 222.521, 426.635 224.927 C 430.070 227.630, 433.318 227.531, 439.766 224.529 C 447.150 221.091, 451.810 217.292, 454.066 212.871 C 459.364 202.485, 453.078 195.806, 441.666 199.697 M 536.332 203.434 C 530.536 207.617, 528.385 216.031, 531.791 221.196 C 536.092 227.717, 542.212 231, 550.067 231 C 559.784 231, 565.583 226.254, 565.135 218.669 C 564.825 213.412, 562.090 209.027, 556.857 205.401 C 553.420 203.019, 551.484 202.468, 545.603 202.196 C 540.340 201.954, 537.938 202.274, 536.332 203.434 M 647.333 373.544 C 647.333 374.345, 647.708 375, 648.167 375 C 648.625 375, 649 374.577, 649 374.059 C 649 373.541, 648.625 372.886, 648.167 372.603 C 647.708 372.320, 647.333 372.743, 647.333 373.544 M 337 406.793 C 333.592 408.421, 332.140 409.553, 333.183 409.770 C 335.151 410.180, 340.078 407.816, 341.945 405.566 C 343.547 403.635, 343.683 403.602, 337 406.793 M 374 407.751 C 365.694 408.586, 350.976 413.309, 352.362 414.696 C 352.604 414.937, 352.375 416.681, 351.853 418.571 C 351.313 420.526, 351.275 422.669, 351.765 423.544 C 352.515 424.885, 352.971 424.811, 355.313 422.969 C 357.413 421.316, 358 421.180, 358 422.344 C 358 423.163, 357.438 424.025, 356.750 424.260 C 355.751 424.602, 355.752 425.370, 356.757 428.091 C 357.564 430.278, 357.653 431.616, 357.007 431.831 C 356.453 432.016, 356 433.683, 356 435.536 C 356 438.981, 354.221 444, 353 444 C 352.107 444, 350 448.666, 350 450.643 C 350 451.494, 349.073 453.492, 347.941 455.083 C 346.809 456.673, 345.794 459.123, 345.686 460.527 C 345.450 463.602, 343.697 464.856, 340.491 464.243 C 339.019 463.962, 337.986 462.971, 337.782 461.644 C 337.601 460.465, 336.867 459.624, 336.152 459.775 C 335.437 459.926, 335.139 459.584, 335.491 459.014 C 336.467 457.435, 337.012 446, 336.111 446 C 334.668 446, 332.270 464.592, 332.886 471 C 333.006 472.245, 333.179 472.265, 333.904 471.122 C 334.384 470.364, 335.246 470.034, 335.819 470.388 C 336.708 470.938, 336.692 475.972, 335.762 487.706 C 335.607 489.667, 334 488.058, 334 485.941 C 334 484.873, 333.494 484, 332.875 484 C 332.116 484, 331.998 485.056, 332.515 487.250 C 332.935 489.038, 333.329 491.668, 333.390 493.096 C 333.450 494.524, 334.139 496.462, 334.919 497.403 C 336.045 498.759, 336.063 499.049, 335.008 498.806 C 334.276 498.638, 333.401 499.585, 333.064 500.912 C 332.512 503.087, 332.142 502.742, 329.308 497.412 C 327.580 494.160, 325.359 488.462, 324.374 484.750 C 323.241 480.483, 322.067 478, 321.181 478 C 320.166 478, 319.918 478.894, 320.279 481.250 C 321.170 487.072, 321.869 489.086, 325.656 496.751 C 333.758 513.147, 350.040 525.161, 367.456 527.593 C 396.231 531.612, 420.473 518.676, 430.808 493.789 C 436.337 480.475, 437.954 461.307, 434.550 449.450 C 429.759 432.767, 415.437 416.675, 400.361 411.034 C 395.157 409.087, 379.773 407.171, 374 407.751 M 300.029 419.961 C 299.220 420.473, 298.818 421.152, 299.136 421.470 C 299.455 421.788, 300.284 421.362, 300.980 420.524 C 302.423 418.786, 302.146 418.622, 300.029 419.961 M 553.500 421.928 C 547.099 422.962, 536.640 427.722, 529.017 433.069 C 522.966 437.314, 517.428 443.743, 512.636 452.086 C 507.327 461.329, 504.141 480.457, 505.778 493.250 C 506.254 496.962, 506.264 500, 505.802 500 C 504.512 500, 505.920 504.750, 509.614 512.854 C 512.221 518.574, 514.693 521.916, 520.733 527.888 C 534.285 541.288, 547.523 546.250, 568 545.606 C 580.552 545.212, 586.092 543.732, 597.237 537.795 C 603.358 534.535, 612.088 526.359, 616.390 519.860 C 619.256 515.530, 624.467 502.005, 625.891 495.201 C 627.430 487.847, 627.252 475.692, 625.495 468.242 C 624.684 464.800, 622.387 458.545, 620.393 454.341 C 613.559 439.941, 596.735 426.152, 582.317 423.134 C 575.068 421.617, 559.463 420.964, 553.500 421.928 M 310.688 423.646 C 309.604 424.729, 309.886 428.811, 311.096 429.559 C 311.699 429.932, 312.929 429.500, 313.829 428.600 C 315.060 427.368, 315.205 426.548, 314.412 425.291 C 313.182 423.342, 311.663 422.671, 310.688 423.646 M 303.032 427.941 C 302.199 429.498, 302.412 430.175, 304.111 431.365 C 306.604 433.111, 309 432.488, 309 430.093 C 309 426.231, 304.764 424.704, 303.032 427.941 M 317.038 427.454 C 316.344 428.290, 316.045 429.675, 316.373 430.530 C 317.179 432.631, 321.254 430.551, 320.810 428.265 C 320.378 426.038, 318.541 425.643, 317.038 427.454 M 310.653 433.490 C 308.726 435.417, 307.521 440.921, 308.755 442.155 C 309.859 443.259, 318.650 439.354, 319.387 437.434 C 320.149 435.449, 317.057 432, 314.515 432 C 313.210 432, 311.472 432.670, 310.653 433.490 M 301.993 434.508 C 299.500 437.512, 303.033 440.567, 305.800 437.800 C 307.470 436.130, 307.304 435.233, 305.105 434.056 C 303.700 433.304, 302.895 433.421, 301.993 434.508 M 336.079 438.583 C 336.127 439.748, 336.364 439.985, 336.683 439.188 C 336.972 438.466, 336.936 437.603, 336.604 437.271 C 336.272 436.939, 336.036 437.529, 336.079 438.583 M 639.044 450.671 C 637.569 452.547, 637.257 453.657, 637.999 454.399 C 639.600 456, 642.442 453.788, 642.816 450.649 C 643.221 447.262, 641.719 447.270, 639.044 450.671 M 631.655 451.829 C 629.465 454.249, 629.558 456, 631.878 456 C 634.277 456, 636.396 453.475, 635.643 451.513 C 634.874 449.508, 633.669 449.604, 631.655 451.829 M 645.351 454.392 C 643.194 456.259, 642.780 457.146, 643.649 458.030 C 645.126 459.532, 648.714 458.403, 649.980 456.037 C 650.680 454.730, 650.566 453.884, 649.580 453.066 C 648.508 452.177, 647.568 452.472, 645.351 454.392 M 339.622 457.803 C 338.847 459.056, 339.889 462, 341.107 462 C 342.235 462, 342.236 459.921, 341.110 458.143 C 340.570 457.292, 340.016 457.165, 339.622 457.803 M 632.428 459.309 C 630.530 460.941, 629.927 462.196, 630.371 463.592 C 631.270 466.427, 636.602 469.317, 639.562 468.574 C 641.671 468.044, 642 467.384, 642 463.681 C 642 461.326, 641.460 458.860, 640.800 458.200 C 638.917 456.317, 635.358 456.788, 632.428 459.309 M 645.750 462.080 C 644.788 462.641, 644 463.752, 644 464.550 C 644 466.350, 646.912 466.383, 649.250 464.608 C 652.923 461.820, 649.920 459.651, 645.750 462.080 M 378.425 469.675 C 375.831 472.474, 376.074 477.069, 378.679 474.464 C 379.484 473.659, 380.340 473, 380.581 473 C 380.822 473, 380.876 476.488, 380.702 480.750 C 380.285 490.951, 381.284 494.352, 385.683 497.707 C 388.800 500.085, 390.267 500.470, 396.641 500.582 C 405.327 500.735, 405.351 500.681, 401.527 489.543 C 400.213 485.716, 399.353 482.238, 399.615 481.814 C 400.117 481.002, 399.005 478.738, 396.599 475.671 C 395.430 474.181, 394.775 474.050, 393.067 474.964 C 389.626 476.805, 389.196 473.449, 392.439 470.064 L 395.138 467.247 387.891 467.264 C 381.543 467.279, 380.369 467.578, 378.425 469.675 M 544.994 470.934 C 539.220 472.691, 536.217 475.001, 534.664 478.881 C 533.793 481.059, 532.179 483.126, 531.076 483.476 C 529.468 483.986, 529.189 484.693, 529.661 487.056 C 530.034 488.919, 529.837 490, 529.125 490 C 528.506 490, 528.003 491.238, 528.007 492.750 C 528.012 494.732, 528.919 496.109, 531.257 497.680 C 535.135 500.287, 541.267 502.873, 545.479 503.679 C 546.567 503.887, 547.827 504.427, 548.278 504.878 C 548.729 505.329, 551.604 504.872, 554.666 503.862 C 560.830 501.828, 562.064 502.040, 561.289 505.001 C 560.175 509.264, 565.476 506.119, 566.954 501.640 C 570.605 490.576, 566.617 479.824, 557 474.805 C 555.625 474.087, 553.912 472.712, 553.193 471.750 C 551.824 469.916, 549.200 469.655, 544.994 470.934 M 333.079 474.583 C 333.127 475.748, 333.364 475.985, 333.683 475.188 C 333.972 474.466, 333.936 473.603, 333.604 473.271 C 333.272 472.939, 333.036 473.529, 333.079 474.583 M 555.184 488.029 C 552.761 489.507, 551.953 490.650, 552.184 492.276 C 552.466 494.260, 553.069 494.495, 557.766 494.456 C 561.739 494.424, 563.546 493.899, 565.127 492.318 L 567.222 490.222 565.111 488.111 C 562.463 485.463, 559.435 485.438, 555.184 488.029 M 547.032 489.750 C 547.062 492.384, 547.126 492.418, 548.532 490.559 C 550.403 488.085, 550.393 487, 548.500 487 C 547.523 487, 547.011 487.958, 547.032 489.750 M 713.500 508 C 713.840 508.550, 714.316 509, 714.559 509 C 714.802 509, 715 508.550, 715 508 C 715 507.450, 714.523 507, 713.941 507 C 713.359 507, 713.160 507.450, 713.500 508 M 650 569.500 C 650 570.325, 650.177 571, 650.393 571 C 650.609 571, 651.045 570.325, 651.362 569.500 C 651.678 568.675, 651.501 568, 650.969 568 C 650.436 568, 650 568.675, 650 569.500 M 640 588 C 640 588.550, 640.450 589, 641 589 C 641.550 589, 642 588.550, 642 588 C 642 587.450, 641.550 587, 641 587 C 640.450 587, 640 587.450, 640 588 M 718.742 625.910 C 718.326 627.785, 718.214 629.548, 718.493 629.826 C 719.536 630.869, 720.131 629.084, 719.820 625.846 L 719.498 622.500 718.742 625.910 M 169.336 629.567 C 168.614 631.448, 170.384 633.499, 171.913 632.554 C 173.561 631.535, 173.216 628, 171.469 628 C 170.626 628, 169.667 628.705, 169.336 629.567 M 714.079 641.583 C 714.127 642.748, 714.364 642.985, 714.683 642.188 C 714.972 641.466, 714.936 640.603, 714.604 640.271 C 714.272 639.939, 714.036 640.529, 714.079 641.583 M 601 652.878 C 601 653.360, 601.675 654.315, 602.500 655 C 604.128 656.351, 604.332 656.028, 603.393 653.582 C 602.750 651.907, 601 651.392, 601 652.878 M 590.710 657 C 590.998 658.100, 591.353 659, 591.500 659 C 591.647 659, 592.002 658.100, 592.290 657 C 592.617 655.750, 592.320 655, 591.500 655 C 590.680 655, 590.383 655.750, 590.710 657 M 597.343 656.912 C 596.443 657.964, 595.096 658.590, 594.350 658.304 C 593.451 657.959, 592.784 658.832, 592.372 660.892 C 592.030 662.601, 591.356 664, 590.875 664 C 590.394 664, 590 664.498, 590 665.107 C 590 665.716, 590.702 665.945, 591.560 665.615 C 593.996 664.681, 592.344 673.325, 588.812 680 C 585.237 686.757, 578.938 694.906, 577.250 694.960 C 576.006 695, 575.590 696.255, 575.954 698.874 C 576.249 701, 566.384 699.462, 554 695.452 C 538.465 690.421, 524.368 686.711, 522.788 687.237 C 521.653 687.616, 537.045 694, 539.091 694 C 539.891 694, 543.910 695.290, 548.023 696.867 C 552.135 698.444, 559.610 701.129, 564.633 702.833 C 575.276 706.444, 582.681 710.175, 585.500 713.345 C 586.600 714.582, 588.976 716.626, 590.779 717.886 C 593.752 719.963, 602.900 729.134, 615.334 742.500 C 618.979 746.418, 620.183 747.196, 620.898 746.094 C 622.388 743.799, 621.131 733.454, 619.004 730.500 C 618.608 729.950, 618.186 726.575, 618.067 723 C 617.461 704.822, 615.504 689, 613.863 689 C 613.388 689, 613 689.900, 613 691 C 613 692.111, 612.333 693, 611.500 693 C 610.675 693, 610 692.530, 610 691.956 C 610 691.382, 608.875 689.699, 607.500 688.217 C 606.125 686.734, 605 684.707, 605 683.714 C 605 682.720, 603.657 681.140, 602.016 680.203 C 600.374 679.267, 598.800 677.904, 598.518 677.175 C 598.071 676.020, 598.786 669.426, 600.572 658.250 C 601.162 654.556, 599.832 654.005, 597.343 656.912 M 586.583 657.866 C 586.152 658.563, 586.070 659.403, 586.400 659.733 C 587.295 660.628, 588.271 659.312, 587.787 657.862 C 587.449 656.846, 587.213 656.846, 586.583 657.866 M 713.345 658.543 C 713.019 659.392, 712.976 660.310, 713.249 660.583 C 713.523 660.856, 713.986 660.161, 714.279 659.040 C 714.903 656.657, 714.210 656.289, 713.345 658.543 M 581 660.500 C 581 661.417, 581.484 662.005, 582.075 661.808 C 582.666 661.611, 583.150 661.023, 583.150 660.500 C 583.150 659.977, 582.666 659.389, 582.075 659.192 C 581.484 658.995, 581 659.583, 581 660.500 M 577.500 661 C 577.160 661.550, 577.359 662, 577.941 662 C 578.523 662, 579 661.550, 579 661 C 579 660.450, 578.802 660, 578.559 660 C 578.316 660, 577.840 660.450, 577.500 661 M 186 663 C 186 663.550, 186.450 664, 187 664 C 187.550 664, 188 663.550, 188 663 C 188 662.450, 187.550 662, 187 662 C 186.450 662, 186 662.450, 186 663 M 569.467 663.053 C 569.110 663.632, 568.295 663.926, 567.658 663.707 C 567.021 663.487, 565.150 663.700, 563.500 664.179 C 561.850 664.657, 556.747 665.279, 552.160 665.560 C 546.799 665.889, 542.911 666.668, 541.274 667.740 C 539.873 668.658, 539.238 669.579, 539.863 669.788 C 540.489 669.996, 541 670.946, 541 671.899 C 541 673.667, 534.442 678, 531.767 678 C 530.049 678, 524 680.891, 524 681.712 C 524 684.065, 549.484 677.682, 553.079 674.429 C 553.947 673.643, 556.197 672.947, 558.079 672.882 L 561.500 672.763 558.500 672.110 C 556.507 671.677, 555.920 671.193, 556.750 670.670 C 557.438 670.236, 558.450 670.160, 559 670.500 C 559.550 670.840, 560 670.416, 560 669.559 C 560 668.702, 560.825 668, 561.833 668 C 562.842 668, 563.965 667.702, 564.329 667.337 C 564.694 666.973, 566.452 666.515, 568.236 666.319 C 570.020 666.124, 572.372 665.072, 573.462 663.982 C 575.438 662.006, 575.436 662, 572.781 662 C 571.316 662, 569.825 662.474, 569.467 663.053 M 290 674.500 C 293.272 676.370, 295.045 676.348, 292.559 674.468 C 291.491 673.661, 289.916 673.016, 289.059 673.035 C 288.060 673.058, 288.398 673.584, 290 674.500 M 505 683.472 C 505 684.378, 516.011 687.137, 518.247 686.791 C 520.344 686.467, 520.278 686.323, 517.300 684.721 C 514.471 683.200, 505 682.238, 505 683.472 M 154.079 695.583 C 154.127 696.748, 154.364 696.985, 154.683 696.188 C 154.972 695.466, 154.936 694.603, 154.604 694.271 C 154.272 693.939, 154.036 694.529, 154.079 695.583 M 589 708 C 589 708.550, 589.477 709, 590.059 709 C 590.641 709, 590.840 708.550, 590.500 708 C 590.160 707.450, 589.684 707, 589.441 707 C 589.198 707, 589 707.450, 589 708 M 267 724 C 265.718 724.828, 265.754 724.972, 267.250 724.985 C 268.212 724.993, 269 724.550, 269 724 C 269 722.780, 268.887 722.780, 267 724 M 140.110 743.065 C 138.864 744.751, 137.626 747.338, 137.359 748.815 L 136.874 751.500 139.785 748.500 C 142.487 745.716, 145 741.892, 145 740.566 C 145 738.906, 142.082 740.397, 140.110 743.065 M 137.564 753.707 C 137.022 755.132, 137.136 755.247, 138.124 754.267 C 138.808 753.588, 139.115 752.781, 138.807 752.474 C 138.499 752.166, 137.940 752.721, 137.564 753.707 M 262.158 754 C 262.158 755.375, 262.385 755.938, 262.662 755.250 C 262.940 754.563, 262.940 753.438, 262.662 752.750 C 262.385 752.063, 262.158 752.625, 262.158 754 M 230.500 764.615 C 228.300 765.455, 225.390 766.307, 224.034 766.507 C 220.918 766.967, 219.321 769.141, 218.492 774.050 C 217.187 781.773, 220.468 784.945, 224.876 780.222 C 228.049 776.822, 234 768.469, 234 767.415 C 234 766.998, 234.745 765.835, 235.655 764.829 C 237.749 762.514, 236.172 762.449, 230.500 764.615 M 640.387 769.532 C 640.539 772.575, 641.100 775.500, 641.631 776.031 C 642.254 776.654, 642.452 775.747, 642.188 773.485 C 641.963 771.553, 642.333 769.304, 643.011 768.486 C 643.869 767.453, 643.903 767, 643.122 767 C 642.505 767, 642 766.325, 642 765.500 C 642 764.675, 641.574 764, 641.054 764 C 640.534 764, 640.234 766.490, 640.387 769.532 M 701 766.500 C 701 767.325, 701.450 768, 702 768 C 702.550 768, 703 767.325, 703 766.500 C 703 765.675, 702.550 765, 702 765 C 701.450 765, 701 765.675, 701 766.500 M 638.079 768.583 C 638.127 769.748, 638.364 769.985, 638.683 769.188 C 638.972 768.466, 638.936 767.603, 638.604 767.271 C 638.272 766.939, 638.036 767.529, 638.079 768.583 M 147.475 771.212 C 145.791 773.214, 145.214 774.571, 145.944 774.815 C 147.257 775.252, 150.691 772.446, 152.128 769.761 C 153.786 766.663, 150.419 767.713, 147.475 771.212 M 263.158 770 C 263.158 771.375, 263.385 771.938, 263.662 771.250 C 263.940 770.563, 263.940 769.438, 263.662 768.750 C 263.385 768.063, 263.158 768.625, 263.158 770 M 263.158 775 C 263.158 776.375, 263.385 776.938, 263.662 776.250 C 263.940 775.563, 263.940 774.438, 263.662 773.750 C 263.385 773.063, 263.158 773.625, 263.158 775 M 146.667 777.667 C 146.300 778.033, 146 778.798, 146 779.367 C 146 779.993, 146.466 779.934, 147.183 779.217 C 147.834 778.566, 148.134 777.801, 147.850 777.517 C 147.566 777.232, 147.033 777.300, 146.667 777.667 M 264.138 788.709 C 264.622 791.299, 265.464 793.864, 266.009 794.409 C 267.253 795.653, 267.246 795.247, 265.917 789.049 C 264.549 782.671, 262.953 782.365, 264.138 788.709 M 718.583 790.866 C 718.152 791.563, 718.070 792.403, 718.400 792.733 C 719.295 793.628, 720.271 792.312, 719.787 790.862 C 719.449 789.846, 719.213 789.846, 718.583 790.866 M 267.041 797 C 267.024 797.825, 268.117 799.850, 269.469 801.500 C 271.018 803.390, 271.940 803.945, 271.959 803 C 271.976 802.175, 270.883 800.150, 269.531 798.500 C 267.982 796.610, 267.060 796.055, 267.041 797 M 272.564 808.293 C 272.940 809.279, 273.499 809.834, 273.807 809.526 C 274.115 809.219, 273.808 808.412, 273.124 807.733 C 272.136 806.753, 272.022 806.868, 272.564 808.293 M 673.500 808 C 673.160 808.550, 673.359 809, 673.941 809 C 674.523 809, 675 808.550, 675 808 C 675 807.450, 674.802 807, 674.559 807 C 674.316 807, 673.840 807.450, 673.500 808 M 232.068 810 C 231.940 811.400, 230.629 814.090, 220.704 833.314 C 216.959 840.568, 216.922 840.753, 217.923 847.083 C 218.585 851.262, 218.608 855.767, 217.989 860 C 217.467 863.575, 217.031 867.314, 217.020 868.309 C 216.984 871.562, 218.722 869.142, 219.380 865.022 C 220.159 860.155, 221.602 859.889, 223.566 864.250 C 224.371 866.038, 225.447 868.175, 225.957 869 C 226.466 869.825, 228.523 876.059, 230.528 882.852 C 232.937 891.018, 236.810 900.508, 241.955 910.852 C 255.324 937.733, 259.551 950.462, 258.390 960.342 C 257.826 965.138, 257.985 965.709, 260.389 967.514 C 261.825 968.592, 263 970.445, 263 971.630 C 263 972.816, 263.675 974.045, 264.500 974.362 C 265.325 974.678, 266 975.626, 266 976.469 C 266 978.910, 267.958 978.241, 269.025 975.435 C 270.392 971.838, 270.239 968.924, 268.585 967.079 C 267.807 966.210, 266.931 963.290, 266.638 960.589 C 266.346 957.888, 265.407 954.979, 264.553 954.125 C 263.521 953.092, 263 952.979, 263 953.786 C 263 954.454, 262.550 955, 262 955 C 261.450 955, 261.007 953.763, 261.015 952.250 C 261.027 950.164, 261.255 949.855, 261.961 950.971 C 263.158 952.865, 264.249 951.811, 263.394 949.586 C 263.036 948.650, 262.155 948.110, 261.438 948.385 C 260.598 948.708, 259.905 947.749, 259.492 945.693 C 259.140 943.937, 258.259 941.150, 257.535 939.500 C 251.922 926.706, 250 922.029, 250 921.166 C 250 920.616, 249.597 920.017, 249.104 919.833 C 248.125 919.469, 238 898.806, 238 897.173 C 238 896.619, 237.662 896.017, 237.248 895.833 C 236.008 895.284, 231.003 879.306, 230.965 875.777 C 230.945 873.975, 230.307 871.376, 229.547 870.003 C 228.576 868.247, 228.474 867.134, 229.205 866.253 C 229.961 865.342, 229.827 865, 228.715 865 C 227.718 865, 226.742 863.274, 225.916 860.050 C 225.218 857.327, 224.277 855.329, 223.824 855.609 C 223.371 855.889, 223 855.246, 223 854.181 C 223 853.116, 222.335 850.652, 221.521 848.705 C 219.337 843.478, 220.197 837.645, 223.916 832.468 C 225.660 830.039, 228.266 825.453, 229.708 822.276 C 231.150 819.099, 232.670 816.270, 233.087 815.989 C 233.504 815.708, 233.476 813.908, 233.025 811.989 C 232.574 810.070, 232.143 809.175, 232.068 810 M 239.322 828.500 C 240.136 831.639, 248.502 852.984, 250.983 858.250 C 252.213 860.862, 253.625 863, 254.119 863 C 254.639 863, 254.627 862.264, 254.090 861.250 C 252.377 858.014, 249.285 850.532, 247.995 846.500 C 246.586 842.094, 238.490 825.292, 239.322 828.500 M 689.008 827.960 C 687.895 828.674, 687.805 829.205, 688.652 830.052 C 690.170 831.570, 693.500 830.847, 693.500 829 C 693.500 827.214, 691.053 826.647, 689.008 827.960 M 565.046 837.914 C 564.432 839.062, 564.347 840, 564.858 840 C 565.886 840, 567.304 836.971, 566.605 836.271 C 566.361 836.028, 565.660 836.767, 565.046 837.914 M 254.977 864.500 C 254.930 865.834, 264.371 883.963, 264.859 883.475 C 265.189 883.144, 263.098 878.849, 256.593 866.500 C 255.723 864.850, 254.996 863.950, 254.977 864.500 M 215.768 879 C 214.018 894.537, 213.674 912.982, 215.055 917.271 C 215.804 919.597, 216.885 921.872, 217.458 922.326 C 218.161 922.884, 218.094 923.317, 217.250 923.659 C 216.546 923.945, 216 925.895, 216 928.123 C 216 931.465, 216.218 931.879, 217.404 930.789 C 218.177 930.080, 218.798 929.275, 218.786 929 C 218.704 927.201, 219.113 926, 219.808 926 C 221.208 926, 224.971 935.746, 227.988 947.186 C 228.668 949.763, 229.849 952.112, 230.612 952.405 C 231.375 952.698, 232 953.406, 232 953.979 C 232 954.552, 233.486 957.153, 235.301 959.760 C 237.117 962.367, 240.774 968.005, 243.429 972.289 C 246.084 976.573, 248.499 979.835, 248.796 979.537 C 249.362 978.972, 247.403 974.571, 245.442 972 C 244.812 971.175, 243.218 968.494, 241.899 966.043 C 240.579 963.592, 238.921 960.892, 238.213 960.043 C 233.283 954.129, 231.701 951.222, 228.957 943.031 C 225.829 933.695, 224.917 931.258, 222.252 925.123 C 221.446 923.266, 220.677 921.241, 220.544 920.623 C 220.411 920.005, 220.009 918.712, 219.651 917.750 C 218.348 914.248, 217.878 912.496, 218.185 912.293 C 218.358 912.179, 217.714 911.504, 216.753 910.793 C 215.267 909.693, 215.164 908.935, 216.060 905.714 C 216.640 903.632, 216.987 901.157, 216.832 900.214 C 216.677 899.271, 216.787 898.050, 217.078 897.500 C 217.368 896.950, 217.356 891.100, 217.053 884.500 C 216.518 872.886, 216.476 872.709, 215.768 879 M 272.509 901 C 273.929 905.683, 275.055 908.278, 275.483 907.850 C 276.026 907.307, 273.637 900.291, 272.561 899.269 C 272.116 898.846, 272.093 899.625, 272.509 901 M 276.070 914.750 C 276.032 916.538, 276.450 918, 277 918 C 278.187 918, 278.187 916.263, 277 913.500 C 276.280 911.824, 276.129 912.026, 276.070 914.750 M 277 921.441 C 277 922.298, 277.450 923, 278 923 C 278.550 923, 279 922.577, 279 922.059 C 279 921.541, 278.550 920.840, 278 920.500 C 277.450 920.160, 277 920.584, 277 921.441 M 156 945.500 C 156 946.325, 156.450 947, 157 947 C 157.550 947, 158 946.325, 158 945.500 C 158 944.675, 157.550 944, 157 944 C 156.450 944, 156 944.675, 156 945.500 M 705.733 948.124 C 706.412 948.808, 707.219 949.115, 707.526 948.807 C 707.834 948.499, 707.279 947.940, 706.293 947.564 C 704.868 947.022, 704.753 947.136, 705.733 948.124 M 147 953.059 C 147 953.641, 147.450 953.840, 148 953.500 C 148.550 953.160, 149 952.684, 149 952.441 C 149 952.198, 148.550 952, 148 952 C 147.450 952, 147 952.477, 147 953.059 M 262.188 957.063 C 262.428 957.784, 263.216 958.572, 263.938 958.813 C 264.688 959.063, 265.063 958.688, 264.813 957.938 C 264.572 957.216, 263.784 956.428, 263.063 956.188 C 262.313 955.938, 261.938 956.313, 262.188 957.063 M 149.035 963.750 C 149.055 965.813, 149.714 968.625, 150.500 970 C 151.877 972.408, 151.916 972.334, 151.564 968 C 151.363 965.525, 151.154 962.712, 151.099 961.750 C 150.901 958.259, 149.001 960.100, 149.035 963.750 M 154.800 961.200 C 155.733 962.133, 156.267 962.133, 157.200 961.200 C 158.133 960.267, 157.867 960, 156 960 C 154.133 960, 153.867 960.267, 154.800 961.200 M 656.980 962.524 C 655.051 964.848, 656.226 965.096, 659.015 962.954 C 660.867 961.531, 661.086 961.039, 659.872 961.022 C 658.977 961.010, 657.676 961.686, 656.980 962.524 M 272 976 C 272 976.550, 272.477 977, 273.059 977 C 273.641 977, 273.840 976.550, 273.500 976 C 273.160 975.450, 272.684 975, 272.441 975 C 272.198 975, 272 975.450, 272 976 M 605.182 981.500 C 606.427 984.232, 609.633 985.092, 608.607 982.418 C 608.273 981.548, 608 980.423, 608 979.918 C 608 979.413, 607.110 979, 606.021 979 C 604.274 979, 604.176 979.292, 605.182 981.500 M 254.079 990.583 C 254.127 991.748, 254.364 991.985, 254.683 991.188 C 254.972 990.466, 254.936 989.603, 254.604 989.271 C 254.272 988.939, 254.036 989.529, 254.079 990.583 M 294 992.500 C 294 994.182, 294.184 994.250, 296.412 993.395 C 298.243 992.693, 297.557 991, 295.441 991 C 294.648 991, 294 991.675, 294 992.500 M 142 993.059 C 142 993.641, 142.450 993.840, 143 993.500 C 143.550 993.160, 144 992.684, 144 992.441 C 144 992.198, 143.550 992, 143 992 C 142.450 992, 142 992.477, 142 993.059 M 8.959 997.250 C 8.936 997.938, 8.673 1001.037, 8.374 1004.139 C 8.033 1007.683, 8.234 1010.027, 8.916 1010.448 C 9.624 1010.886, 10.049 1009.623, 10.142 1006.809 C 10.221 1004.439, 10.407 1001.038, 10.555 999.250 C 10.704 997.462, 10.415 996, 9.913 996 C 9.411 996, 8.981 996.563, 8.959 997.250 M 257.416 1000.139 C 258.779 1003.380, 261 1005.205, 261 1003.083 C 261 1002.487, 260.581 1002, 260.070 1002 C 259.558 1002, 258.995 1001.023, 258.820 999.828 C 258.644 998.634, 257.944 997.474, 257.265 997.250 C 256.333 996.943, 256.370 997.650, 257.416 1000.139 M 8.497 1014.364 C 7.582 1015.760, 7.099 1017.737, 7.423 1018.757 C 7.747 1019.778, 7.616 1022.733, 7.132 1025.325 C 6.339 1029.568, 7.092 1032.241, 8.644 1030.690 C 9.229 1030.104, 10.951 1012.674, 10.474 1012.163 C 10.301 1011.978, 9.412 1012.968, 8.497 1014.364 M 253.743 1017.446 C 251.833 1018.843, 251.629 1022.821, 253.242 1027.250 C 254.837 1031.633, 255.902 1030.452, 255.656 1024.574 C 255.532 1021.589, 255.783 1019.366, 256.215 1019.633 C 257.201 1020.242, 257.209 1018.877, 256.228 1017.335 C 255.671 1016.459, 255.055 1016.487, 253.743 1017.446 M 284.012 1018.977 C 283.149 1020.591, 283.234 1020.847, 284.477 1020.371 C 285.315 1020.049, 286 1019.159, 286 1018.393 C 286 1016.440, 285.253 1016.659, 284.012 1018.977 M 17.500 1019 C 17.840 1019.550, 18.316 1020, 18.559 1020 C 18.802 1020, 19 1019.550, 19 1019 C 19 1018.450, 18.523 1018, 17.941 1018 C 17.359 1018, 17.160 1018.450, 17.500 1019 M 186 1026 C 186 1026.550, 186.927 1027, 188.059 1027 C 189.191 1027, 189.840 1026.550, 189.500 1026 C 189.160 1025.450, 188.234 1025, 187.441 1025 C 186.648 1025, 186 1025.450, 186 1026 M 238 1036.883 C 238 1039.026, 238.574 1039.917, 240.233 1040.351 C 243.640 1041.242, 244.207 1039.748, 241.609 1036.725 C 238.642 1033.272, 238 1033.300, 238 1036.883 M 144 1046.941 C 144 1047.459, 144.445 1048.157, 144.989 1048.493 C 145.555 1048.843, 145.723 1048.442, 145.382 1047.552 C 144.717 1045.820, 144 1045.503, 144 1046.941 M 370.393 1083.582 C 370.727 1084.452, 371.029 1085.914, 371.063 1086.832 C 371.107 1087.969, 371.426 1087.754, 372.065 1086.158 C 373.061 1083.674, 372.565 1082, 370.834 1082 C 370.258 1082, 370.059 1082.712, 370.393 1083.582 M 159.711 1094.999 C 159.423 1096.098, 159.500 1097.191, 159.882 1097.427 C 160.263 1097.663, 160.666 1096.763, 160.777 1095.428 C 161.020 1092.488, 160.429 1092.251, 159.711 1094.999 M 163.651 1098.468 C 163.341 1099.275, 163.518 1100.202, 164.044 1100.527 C 164.570 1100.852, 165 1100.191, 165 1099.059 C 165 1096.644, 164.444 1096.401, 163.651 1098.468 M 380.500 1104 C 380.840 1104.550, 381.568 1105, 382.118 1105 C 382.668 1105, 382.840 1104.550, 382.500 1104 C 382.160 1103.450, 381.432 1103, 380.882 1103 C 380.332 1103, 380.160 1103.450, 380.500 1104 M 165.710 1106 C 165.998 1107.100, 167.043 1108, 168.033 1108 C 169.023 1108, 170.060 1108.563, 170.338 1109.250 C 170.629 1109.971, 170.876 1109.729, 170.921 1108.679 C 170.964 1107.677, 170.358 1106.215, 169.573 1105.430 C 168.337 1104.194, 168.085 1104.237, 167.689 1105.752 C 167.254 1107.415, 167.226 1107.415, 167.116 1105.750 C 167.052 1104.787, 166.592 1104, 166.094 1104 C 165.595 1104, 165.423 1104.900, 165.710 1106 M 174.500 1105 C 174.840 1105.550, 175.316 1106, 175.559 1106 C 175.802 1106, 176 1105.550, 176 1105 C 176 1104.450, 175.523 1104, 174.941 1104 C 174.359 1104, 174.160 1104.450, 174.500 1105 M 159.609 1107.576 C 158.764 1109.779, 159.692 1110.708, 161.217 1109.183 C 162.055 1108.345, 162.089 1107.689, 161.333 1106.933 C 160.576 1106.176, 160.074 1106.364, 159.609 1107.576 M 265.481 1133.400 C 263.558 1134.814, 263.555 1134.879, 265.386 1135.588 C 267.376 1136.359, 270.637 1134.902, 270.303 1133.391 C 269.966 1131.870, 267.554 1131.874, 265.481 1133.400 M 338.652 1134.465 C 338.306 1135.366, 339.294 1136.020, 341.671 1136.466 C 346.310 1137.336, 346.537 1136.875, 342.482 1134.814 C 339.802 1133.451, 339.067 1133.384, 338.652 1134.465 M 194.544 1135.960 C 192.866 1136.570, 192.806 1136.800, 194.120 1137.585 C 194.962 1138.088, 195.940 1139.287, 196.294 1140.250 C 196.697 1141.346, 197.977 1141.998, 199.719 1141.993 L 202.500 1141.987 199.902 1140.243 C 198.473 1139.285, 197.484 1137.979, 197.704 1137.342 C 198.263 1135.729, 196.865 1135.118, 194.544 1135.960 M 350.531 1137.293 C 350.103 1138.279, 350.034 1139.367, 350.376 1139.710 C 351.392 1140.725, 352.211 1139.299, 351.743 1137.328 C 351.329 1135.581, 351.275 1135.580, 350.531 1137.293 M 352.598 1139.736 C 352.269 1140.064, 352 1141.335, 352 1142.560 C 352 1145.163, 354.458 1146.420, 356.836 1145.032 C 357.813 1144.462, 357.984 1144.048, 357.250 1144.030 C 356.563 1144.014, 356 1143.148, 356 1142.107 C 356 1140.208, 353.717 1138.616, 352.598 1139.736 M 212 1150 C 212 1150.550, 212.450 1151, 213 1151 C 213.550 1151, 214 1151.750, 214 1152.667 C 214 1153.583, 214.266 1154.067, 214.591 1153.742 C 215.426 1152.908, 214.059 1149, 212.933 1149 C 212.420 1149, 212 1149.450, 212 1150 M 210.658 1152.551 C 211.265 1154.133, 213 1154.545, 213 1153.107 C 213 1152.616, 212.348 1151.964, 211.551 1151.658 C 210.582 1151.286, 210.286 1151.582, 210.658 1152.551 M 216 1156.071 C 216 1156.661, 216.635 1157.778, 217.411 1158.554 C 218.187 1159.330, 218.598 1160.822, 218.324 1161.870 C 217.709 1164.219, 219.435 1165.381, 223.988 1165.685 C 225.907 1165.812, 228.503 1166.467, 229.758 1167.138 C 232.745 1168.737, 235.020 1166.934, 233.035 1164.542 C 232.331 1163.694, 231.383 1163, 230.929 1163 C 230.475 1163, 228.853 1161.842, 227.326 1160.426 C 225.799 1159.011, 224.388 1158.336, 224.191 1158.926 C 223.564 1160.809, 222.237 1160.082, 221.589 1157.500 C 221.131 1155.674, 220.293 1155, 218.481 1155 C 217.116 1155, 216 1155.482, 216 1156.071 M 215.500 1161 C 215.840 1161.550, 216.316 1162, 216.559 1162 C 216.802 1162, 217 1161.550, 217 1161 C 217 1160.450, 216.523 1160, 215.941 1160 C 215.359 1160, 215.160 1160.450, 215.500 1161 M 355 1179 C 355 1179.550, 355.477 1180, 356.059 1180 C 356.641 1180, 356.840 1179.550, 356.500 1179 C 356.160 1178.450, 355.684 1178, 355.441 1178 C 355.198 1178, 355 1178.450, 355 1179 M 311.658 1187.550 C 311.937 1188.278, 312.803 1188.629, 313.583 1188.330 C 315.461 1187.609, 315.373 1187.331, 313.075 1186.730 C 311.761 1186.386, 311.311 1186.646, 311.658 1187.550 M 321 1191 C 321 1191.550, 321.477 1192, 322.059 1192 C 322.641 1192, 322.840 1191.550, 322.500 1191 C 322.160 1190.450, 321.684 1190, 321.441 1190 C 321.198 1190, 321 1190.450, 321 1191 M 199.758 1202.558 C 201.706 1204.506, 203.651 1205.740, 204.079 1205.300 C 205.246 1204.101, 201.814 1200.421, 198.831 1199.672 C 196.303 1199.038, 196.333 1199.133, 199.758 1202.558 M 667 1215.059 C 667 1216.191, 667.450 1216.840, 668 1216.500 C 668.550 1216.160, 669 1215.234, 669 1214.441 C 669 1213.648, 668.550 1213, 668 1213 C 667.450 1213, 667 1213.927, 667 1215.059 M 215.667 1235.667 C 215.300 1236.033, 215 1236.798, 215 1237.367 C 215 1237.993, 215.466 1237.934, 216.183 1237.217 C 216.834 1236.566, 217.134 1235.801, 216.850 1235.517 C 216.566 1235.233, 216.033 1235.300, 215.667 1235.667 M 324.158 1238 C 324.158 1239.375, 324.385 1239.938, 324.662 1239.250 C 324.940 1238.563, 324.940 1237.438, 324.662 1236.750 C 324.385 1236.063, 324.158 1236.625, 324.158 1238 M 334.500 1241 C 334.840 1241.550, 335.316 1242, 335.559 1242 C 335.802 1242, 336 1241.550, 336 1241 C 336 1240.450, 335.523 1240, 334.941 1240 C 334.359 1240, 334.160 1240.450, 334.500 1241 M 669.195 1244.500 C 669.215 1246.150, 669.439 1246.704, 669.693 1245.731 C 669.947 1244.758, 669.930 1243.408, 669.656 1242.731 C 669.382 1242.054, 669.175 1242.850, 669.195 1244.500 M 667 1249 C 665.718 1249.828, 665.754 1249.972, 667.250 1249.985 C 668.212 1249.993, 669 1249.550, 669 1249 C 669 1247.780, 668.887 1247.780, 667 1249 M 672.158 1250 C 672.158 1251.375, 672.385 1251.938, 672.662 1251.250 C 672.940 1250.563, 672.940 1249.438, 672.662 1248.750 C 672.385 1248.063, 672.158 1248.625, 672.158 1250 M 224 1251 C 224 1251.550, 224.450 1252, 225 1252 C 225.550 1252, 226 1251.550, 226 1251 C 226 1250.450, 225.550 1250, 225 1250 C 224.450 1250, 224 1250.450, 224 1251 M 319.150 1253.250 C 319.067 1254.763, 318.523 1256, 317.941 1256 C 317.359 1256, 317.184 1256.489, 317.554 1257.087 C 318.714 1258.965, 320.187 1256.448, 319.728 1253.372 L 319.300 1250.500 319.150 1253.250 M 317 1260.441 C 317 1261.298, 317.450 1262, 318 1262 C 318.550 1262, 319 1261.577, 319 1261.059 C 319 1260.541, 318.550 1259.840, 318 1259.500 C 317.450 1259.160, 317 1259.584, 317 1260.441 M 418 1259.849 C 418 1261.529, 420.902 1264.431, 421.742 1263.591 C 422.098 1263.236, 421.401 1261.957, 420.194 1260.750 C 418.864 1259.419, 418 1259.065, 418 1259.849 M 313 1262 C 312.361 1263.194, 312.063 1264.396, 312.338 1264.671 C 312.613 1264.946, 313.361 1264.194, 314 1263 C 314.639 1261.806, 314.937 1260.604, 314.662 1260.329 C 314.387 1260.054, 313.639 1260.806, 313 1262 M 674.032 1265.250 C 674.049 1265.938, 674.724 1267.374, 675.532 1268.441 C 676.812 1270.134, 677 1270.166, 677 1268.691 C 677 1267.761, 677.502 1267, 678.117 1267 C 679.187 1267, 679.064 1268.134, 677.519 1272.500 C 676.934 1274.154, 677.011 1274.241, 677.965 1273 C 678.865 1271.829, 678.982 1272.488, 678.500 1276 C 678.050 1279.274, 678.166 1280.091, 678.926 1279 C 679.631 1277.986, 679.974 1277.905, 679.985 1278.750 C 679.993 1279.438, 681.125 1280, 682.500 1280 C 685.400 1280, 685.606 1279.327, 683.436 1276.929 C 682.576 1275.979, 681.834 1273.877, 681.788 1272.259 C 681.742 1270.641, 681.200 1268.683, 680.582 1267.908 C 679.492 1266.540, 675.548 1264, 674.514 1264 C 674.231 1264, 674.014 1264.563, 674.032 1265.250 M 424.500 1279 C 422.903 1279.686, 423.267 1279.874, 426.309 1279.930 C 428.609 1279.972, 429.873 1279.604, 429.500 1279 C 428.770 1277.819, 427.248 1277.819, 424.500 1279" stroke="none" fill="black" fill-rule="evenodd"/>
</svg>